# xmcd
#
# Track frame offsets: 
#        150
#        4905
#        12687
#        35612
#        42235
#        58835
#        95087
#        104550
#        137240
#        168942
#        180750
#        203595
#        212000
#        236730
#
# Disc length: 3321 seconds
#
# Revision: 2
# Processed by: cddbd v1.5.2PL0 Copyright (c) Steve Scherf et al.
# Submitted via: ExactAudioCopy v1.0b3
#
DISCID=c30cf70e
DTITLE=Maurice André, Sergei Nakariakov, Theo Mertens - Le charme de l
DTITLE=a trompette
DYEAR=1997
DGENRE=Classical
TTITLE0=Kimski-Korsakov - Le Vol du bourdon
TTITLE1=Vivaldi - Concerto en la bémol majeur - Allegro
TTITLE2=Hayden - Concerto en me bémol majeur - Finale: Allegro
TTITLE3=Bach - Badinerie
TTITLE4=Arensky - Concert Valse
TTITLE5=Arban - Le Carnaval de Venise
TTITLE6=Telemann - Concerto en ré majeur - Allegro
TTITLE7=Torelli - Concerto (I) en ré majeur
TTITLE8=Torelli - Concerto (II) en ré majeur
TTITLE9=Tellemann - Concerto in ré majeur pour 3 trompettes - Overture
TTITLE10=Hartmann - Arbucklenia Polka
TTITLE11=Dinicu - Hora staccato
TTITLE12=Vivaldi - Concerto en ut majeur pour 2 trompettes - Largo-All
TTITLE12=egro molto
TTITLE13=Purcell - Trumpet Voluntary
EXTD=YEAR: 1997
EXTT0=
EXTT1=
EXTT2=
EXTT3=
EXTT4=
EXTT5=
EXTT6=
EXTT7=
EXTT8=
EXTT9=
EXTT10=
EXTT11=
EXTT12=
EXTT13=
PLAYORDER=
